<svg xmlns="http://www.w3.org/2000/svg" xmlns:xlink="http://www.w3.org/1999/xlink" width="756.85" height="39.685"><defs><rect id="a" x=".908" y="1.036" width="755.035" height="37.613"/></defs><clipPath id="b"><use xlink:href="#a" overflow="visible"/></clipPath><path clip-path="url(#b)" fill="#C6D2DA" d="M755.943 29.639c0-.629-.119-3.604-3.587-3.604-3.35 0-3.91 3.246-3.91 6.307 0 3.264.544 6.307 3.723 6.307 1.343 0 2.295-.85 2.618-1.887h.034v1.648h1.122v-6.307h-3.757v1.225h2.396c0 1.615-.153 4.098-2.227 4.098s-2.347-2.279-2.347-5.084.272-5.082 2.347-5.082c1.496 0 1.938 1.104 2.022 2.379h1.566zm-10.705 4.608c-.051 1.479-.306 3.18-2.125 3.18-2.074 0-2.346-2.279-2.346-5.084s.271-5.082 2.346-5.082c1.547 0 1.972 1.172 2.022 2.549h1.564c-.068-2.379-1.122-3.773-3.587-3.773-3.35 0-3.91 3.246-3.91 6.307s.459 6.307 3.91 6.307c2.652 0 3.553-2.107 3.688-4.402h-1.562zm-15.906 4.164h1.564l.9-3.332h3.876l.867 3.332h1.564l-3.265-12.137h-2.006l-3.5 12.137zm4.454-10.42h.034l1.547 5.865h-3.264l1.683-5.865zm-6.71 6.256c-.051 1.479-.306 3.18-2.125 3.18-2.074 0-2.346-2.279-2.346-5.084s.271-5.082 2.346-5.082c1.547 0 1.972 1.172 2.023 2.549h1.563c-.068-2.379-1.122-3.773-3.587-3.773-3.349 0-3.91 3.246-3.91 6.307s.459 6.307 3.91 6.307c2.652 0 3.553-2.107 3.689-4.402h-1.563zm-10.466-6.647h3.06v-1.326h-7.599v1.326h3.043v10.811h1.496v-10.811zm-5.91 2.039c0-.629-.119-3.604-3.587-3.604-3.35 0-3.91 3.246-3.91 6.307 0 3.264.544 6.307 3.723 6.307 1.344 0 2.295-.85 2.618-1.887h.034v1.648h1.122v-6.307h-3.757v1.225h2.396c0 1.615-.152 4.098-2.227 4.098s-2.346-2.279-2.346-5.084.271-5.082 2.346-5.082c1.496 0 1.938 1.104 2.022 2.379h1.566zm-10.705 4.608c-.051 1.479-.306 3.18-2.125 3.18-2.074 0-2.346-2.279-2.346-5.084s.271-5.082 2.346-5.082c1.547 0 1.972 1.172 2.023 2.549h1.563c-.068-2.379-1.122-3.773-3.587-3.773-3.349 0-3.91 3.246-3.91 6.307s.459 6.307 3.91 6.307c2.652 0 3.553-2.107 3.689-4.402h-1.563zm-9.243 0c-.051 1.479-.306 3.18-2.125 3.18-2.073 0-2.346-2.279-2.346-5.084s.272-5.082 2.346-5.082c1.547 0 1.973 1.172 2.023 2.549h1.563c-.067-2.379-1.122-3.773-3.587-3.773-3.349 0-3.91 3.246-3.91 6.307s.459 6.307 3.91 6.307c2.652 0 3.554-2.107 3.689-4.402h-1.563zm-15.907 4.164h1.564l.901-3.332h3.876l.867 3.332h1.563l-3.264-12.137h-2.006l-3.501 12.137zm4.454-10.42h.034l1.547 5.865h-3.264l1.683-5.865zm-6.709 6.256c-.051 1.479-.306 3.18-2.125 3.18-2.073 0-2.346-2.279-2.346-5.084s.272-5.082 2.346-5.082c1.548 0 1.973 1.172 2.023 2.549h1.563c-.067-2.379-1.121-3.773-3.587-3.773-3.349 0-3.909 3.246-3.909 6.307s.459 6.307 3.909 6.307c2.652 0 3.554-2.107 3.689-4.402h-1.563zm-8.086-4.608c0-.629-.119-3.604-3.587-3.604-3.349 0-3.91 3.246-3.91 6.307 0 3.264.544 6.307 3.724 6.307 1.343 0 2.295-.85 2.618-1.887h.033v1.648h1.122v-6.307h-3.757v1.225h2.397c0 1.615-.153 4.098-2.228 4.098s-2.346-2.279-2.346-5.084.271-5.082 2.346-5.082c1.496 0 1.938 1.104 2.023 2.379h1.565zm-11.928-2.039h3.06v-1.326h-7.599v1.326h3.043v10.811h1.496v-10.811zm-8.29 0h3.06v-1.326h-7.599v1.326h3.043v10.811h1.496v-10.811zm-7.068 6.647c-.051 1.479-.306 3.18-2.125 3.18-2.073 0-2.346-2.279-2.346-5.084s.272-5.082 2.346-5.082c1.548 0 1.973 1.172 2.023 2.549h1.564c-.068-2.379-1.122-3.773-3.588-3.773-3.349 0-3.909 3.246-3.909 6.307s.459 6.307 3.909 6.307c2.652 0 3.554-2.107 3.689-4.402h-1.563zm-10.466-6.647h3.061v-1.326h-7.6v1.326h3.043v10.811h1.496v-10.811zm-5.911 2.039c0-.629-.118-3.604-3.587-3.604-3.349 0-3.91 3.246-3.91 6.307 0 3.264.544 6.307 3.724 6.307 1.343 0 2.295-.85 2.618-1.887h.033v1.648h1.122v-6.307h-3.757v1.225h2.397c0 1.615-.153 4.098-2.228 4.098-2.073 0-2.346-2.279-2.346-5.084s.272-5.082 2.346-5.082c1.496 0 1.938 1.104 2.023 2.379h1.565zm-10.703 4.608c-.052 1.479-.307 3.18-2.125 3.18-2.074 0-2.347-2.279-2.347-5.084s.272-5.082 2.347-5.082c1.547 0 1.972 1.172 2.022 2.549h1.564c-.068-2.379-1.122-3.773-3.587-3.773-3.35 0-3.91 3.246-3.91 6.307s.459 6.307 3.91 6.307c2.651 0 3.553-2.107 3.688-4.402h-1.562zm-10.467-6.647h3.061v-1.326h-7.6v1.326h3.043v10.811h1.496v-10.811zm-12.796 10.811h1.564l.9-3.332h3.876l.867 3.332h1.564l-3.265-12.137h-2.006l-3.5 12.137zm4.455-10.42h.034l1.547 5.865h-3.264l1.683-5.865zm-13.374 10.42h1.564l.9-3.332h3.876l.867 3.332h1.564l-3.265-12.137h-2.006l-3.5 12.137zm4.454-10.42h.034l1.547 5.865h-3.264l1.683-5.865zm-6.709 6.256c-.051 1.479-.306 3.18-2.125 3.18-2.074 0-2.346-2.279-2.346-5.084s.271-5.082 2.346-5.082c1.547 0 1.972 1.172 2.023 2.549h1.563c-.068-2.379-1.122-3.773-3.587-3.773-3.349 0-3.91 3.246-3.91 6.307s.459 6.307 3.91 6.307c2.652 0 3.553-2.107 3.689-4.402h-1.563zm-8.086-4.608c0-.629-.119-3.604-3.587-3.604-3.349 0-3.91 3.246-3.91 6.307 0 3.264.544 6.307 3.723 6.307 1.344 0 2.295-.85 2.618-1.887h.034v1.648h1.122v-6.307h-3.757v1.225h2.396c0 1.615-.152 4.098-2.227 4.098s-2.346-2.279-2.346-5.084.271-5.082 2.346-5.082c1.496 0 1.938 1.104 2.022 2.379h1.566zm-11.929-2.039h3.06v-1.326h-7.599v1.326h3.043v10.811h1.496v-10.811zm-7.066 6.647c-.051 1.479-.306 3.18-2.125 3.18-2.074 0-2.346-2.279-2.346-5.084s.271-5.082 2.346-5.082c1.547 0 1.972 1.172 2.023 2.549h1.563c-.068-2.379-1.122-3.773-3.587-3.773-3.349 0-3.91 3.246-3.91 6.307s.459 6.307 3.91 6.307c2.652 0 3.553-2.107 3.689-4.402h-1.563zm-15.908 4.164h1.564l.9-3.332h3.877l.866 3.332h1.564l-3.265-12.137h-2.006l-3.5 12.137zm4.455-10.42h.034l1.547 5.865h-3.264l1.683-5.865zm-6.709 6.256c-.051 1.479-.306 3.18-2.125 3.18-2.074 0-2.346-2.279-2.346-5.084s.271-5.082 2.346-5.082c1.547 0 1.972 1.172 2.023 2.549h1.563c-.067-2.379-1.122-3.773-3.587-3.773-3.349 0-3.91 3.246-3.91 6.307s.459 6.307 3.91 6.307c2.652 0 3.553-2.107 3.689-4.402h-1.563zm-8.086-4.608c0-.629-.119-3.604-3.587-3.604-3.349 0-3.91 3.246-3.91 6.307 0 3.264.544 6.307 3.723 6.307 1.344 0 2.296-.85 2.618-1.887h.034v1.648h1.122v-6.307h-3.757v1.225h2.396c0 1.615-.152 4.098-2.227 4.098s-2.346-2.279-2.346-5.084.271-5.082 2.346-5.082c1.496 0 1.938 1.104 2.023 2.379h1.565zm-10.705 4.608c-.051 1.479-.306 3.18-2.125 3.18-2.074 0-2.346-2.279-2.346-5.084s.271-5.082 2.346-5.082c1.547 0 1.973 1.172 2.023 2.549h1.563c-.067-2.379-1.122-3.773-3.587-3.773-3.349 0-3.91 3.246-3.91 6.307s.459 6.307 3.91 6.307c2.652 0 3.553-2.107 3.689-4.402h-1.563zm-8.086-4.608c0-.629-.119-3.604-3.587-3.604-3.349 0-3.91 3.246-3.91 6.307 0 3.264.544 6.307 3.724 6.307 1.343 0 2.295-.85 2.617-1.887h.034v1.648h1.122v-6.307h-3.757v1.225h2.396c0 1.615-.152 4.098-2.227 4.098s-2.346-2.279-2.346-5.084.271-5.082 2.346-5.082c1.496 0 1.938 1.104 2.023 2.379h1.565zm-10.706 4.608c-.051 1.479-.306 3.18-2.125 3.18-2.074 0-2.346-2.279-2.346-5.084s.271-5.082 2.346-5.082c1.547 0 1.973 1.172 2.023 2.549h1.563c-.067-2.379-1.122-3.773-3.587-3.773-3.349 0-3.91 3.246-3.91 6.307s.459 6.307 3.91 6.307c2.652 0 3.553-2.107 3.689-4.402h-1.563zm-15.906 4.164h1.564l.901-3.332h3.876l.866 3.332h1.564l-3.264-12.137h-2.006l-3.501 12.137zm4.454-10.42h.034l1.547 5.865h-3.264l1.683-5.865zm-6.71 6.256c-.051 1.479-.306 3.18-2.125 3.18-2.073 0-2.346-2.279-2.346-5.084s.272-5.082 2.346-5.082c1.547 0 1.973 1.172 2.023 2.549h1.563c-.067-2.379-1.122-3.773-3.587-3.773-3.349 0-3.91 3.246-3.91 6.307s.46 6.307 3.91 6.307c2.652 0 3.554-2.107 3.689-4.402h-1.563zm-10.465-6.647h3.061v-1.326h-7.6v1.326h3.043v10.811h1.496v-10.811zm-5.911 2.039c0-.629-.119-3.604-3.587-3.604-3.349 0-3.91 3.246-3.91 6.307 0 3.264.544 6.307 3.724 6.307 1.343 0 2.295-.85 2.618-1.887h.033v1.648h1.122v-6.307h-3.757v1.225h2.397c0 1.615-.153 4.098-2.228 4.098s-2.346-2.279-2.346-5.084.271-5.082 2.346-5.082c1.496 0 1.938 1.104 2.023 2.379h1.565zm-10.705 4.608c-.051 1.479-.306 3.18-2.125 3.18-2.073 0-2.346-2.279-2.346-5.084s.272-5.082 2.346-5.082c1.547 0 1.973 1.172 2.023 2.549h1.563c-.067-2.379-1.121-3.773-3.587-3.773-3.349 0-3.909 3.246-3.909 6.307s.459 6.307 3.909 6.307c2.652 0 3.554-2.107 3.689-4.402h-1.563zm-9.241 0c-.052 1.479-.307 3.18-2.125 3.18-2.074 0-2.347-2.279-2.347-5.084s.272-5.082 2.347-5.082c1.547 0 1.972 1.172 2.022 2.549h1.564c-.068-2.379-1.122-3.773-3.587-3.773-3.35 0-3.91 3.246-3.91 6.307s.459 6.307 3.91 6.307c2.651 0 3.553-2.107 3.688-4.402h-1.562zm-15.907 4.164h1.563l.901-3.332h3.876l.867 3.332h1.563l-3.264-12.137h-2.006l-3.5 12.137zm4.454-10.42h.034l1.547 5.865h-3.265l1.684-5.865zm-6.709 6.256c-.052 1.479-.307 3.18-2.125 3.18-2.074 0-2.347-2.279-2.347-5.084s.272-5.082 2.347-5.082c1.547 0 1.972 1.172 2.022 2.549h1.564c-.068-2.379-1.122-3.773-3.587-3.773-3.35 0-3.91 3.246-3.91 6.307s.459 6.307 3.91 6.307c2.651 0 3.553-2.107 3.688-4.402h-1.562zm-8.086-4.608c0-.629-.119-3.604-3.587-3.604-3.35 0-3.91 3.246-3.91 6.307 0 3.264.544 6.307 3.723 6.307 1.342 0 2.295-.85 2.618-1.887h.034v1.648h1.122v-6.307h-3.758v1.225h2.397c0 1.615-.153 4.098-2.227 4.098s-2.347-2.279-2.347-5.084.272-5.082 2.347-5.082c1.495 0 1.938 1.104 2.021 2.379h1.567zm-11.93-2.039h3.061v-1.326h-7.6v1.326h3.043v10.811h1.496v-10.811zm-8.29 0h3.061v-1.326h-7.6v1.326h3.043v10.811h1.496v-10.811zm-7.066 6.647c-.051 1.479-.307 3.18-2.125 3.18-2.074 0-2.347-2.279-2.347-5.084s.272-5.082 2.347-5.082c1.547 0 1.972 1.172 2.022 2.549h1.564c-.068-2.379-1.122-3.773-3.587-3.773-3.35 0-3.91 3.246-3.91 6.307s.459 6.307 3.91 6.307c2.651 0 3.553-2.107 3.688-4.402h-1.562zm-10.466-6.647h3.06v-1.326h-7.599v1.326h3.043v10.811h1.496v-10.811zm-5.911 2.039c0-.629-.119-3.604-3.587-3.604-3.35 0-3.91 3.246-3.91 6.307 0 3.264.544 6.307 3.723 6.307 1.343 0 2.295-.85 2.618-1.887h.034v1.648h1.122v-6.307h-3.757v1.225h2.396c0 1.615-.153 4.098-2.227 4.098s-2.347-2.279-2.347-5.084.272-5.082 2.347-5.082c1.496 0 1.938 1.104 2.022 2.379h1.566zm-10.704 4.608c-.051 1.479-.307 3.18-2.125 3.18-2.074 0-2.347-2.279-2.347-5.084s.272-5.082 2.347-5.082c1.547 0 1.972 1.172 2.022 2.549h1.564c-.068-2.379-1.122-3.773-3.587-3.773-3.35 0-3.91 3.246-3.91 6.307s.459 6.307 3.91 6.307c2.651 0 3.553-2.107 3.688-4.402h-1.562zm-10.466-6.647h3.06v-1.326h-7.599v1.326h3.042v10.811h1.497v-10.811zm-12.796 10.811h1.563l.901-3.332h3.876l.867 3.332h1.563l-3.264-12.137h-2.006l-3.5 12.137zm4.453-10.42h.034l1.547 5.865h-3.264l1.683-5.865zm-13.374 10.42h1.564l.901-3.332h3.876l.866 3.332h1.564l-3.264-12.137h-2.007l-3.5 12.137zm4.454-10.42h.034l1.547 5.865h-3.264l1.683-5.865zm-6.709 6.256c-.051 1.479-.306 3.18-2.125 3.18-2.073 0-2.346-2.279-2.346-5.084s.272-5.082 2.346-5.082c1.547 0 1.973 1.172 2.023 2.549h1.563c-.067-2.379-1.122-3.773-3.587-3.773-3.349 0-3.91 3.246-3.91 6.307s.46 6.307 3.91 6.307c2.652 0 3.554-2.107 3.689-4.402h-1.563zm-8.086-4.608c0-.629-.119-3.604-3.587-3.604-3.349 0-3.91 3.246-3.91 6.307 0 3.264.544 6.307 3.724 6.307 1.343 0 2.295-.85 2.618-1.887h.033v1.648h1.122v-6.307h-3.757v1.225h2.397c0 1.615-.153 4.098-2.228 4.098s-2.346-2.279-2.346-5.084.271-5.082 2.346-5.082c1.496 0 1.938 1.104 2.023 2.379h1.565zm-11.928-2.039h3.06v-1.326h-7.599v1.326h3.043v10.811h1.496v-10.811zm-7.067 6.647c-.051 1.479-.306 3.18-2.125 3.18-2.074 0-2.346-2.279-2.346-5.084s.271-5.082 2.346-5.082c1.547 0 1.972 1.172 2.023 2.549h1.563c-.067-2.379-1.122-3.773-3.587-3.773-3.349 0-3.91 3.246-3.91 6.307s.459 6.307 3.91 6.307c2.652 0 3.553-2.107 3.689-4.402h-1.563zm-15.907 4.164h1.564l.901-3.332h3.876l.866 3.332h1.564l-3.264-12.137h-2.007l-3.5 12.137zm4.454-10.42h.034l1.547 5.865h-3.264l1.683-5.865zm-6.709 6.256c-.051 1.479-.306 3.18-2.125 3.18-2.074 0-2.346-2.279-2.346-5.084s.271-5.082 2.346-5.082c1.547 0 1.973 1.172 2.023 2.549h1.563c-.067-2.379-1.122-3.773-3.587-3.773-3.349 0-3.91 3.246-3.91 6.307s.459 6.307 3.91 6.307c2.652 0 3.554-2.107 3.689-4.402h-1.563zm-8.087-4.608c0-.629-.118-3.604-3.587-3.604-3.349 0-3.909 3.246-3.909 6.307 0 3.264.543 6.307 3.723 6.307 1.343 0 2.296-.85 2.618-1.887h.034v1.648h1.121v-6.307h-3.756v1.225h2.396c0 1.615-.153 4.098-2.228 4.098-2.073 0-2.346-2.279-2.346-5.084s.272-5.082 2.346-5.082c1.496 0 1.938 1.104 2.024 2.379h1.564zm-10.704 4.608c-.051 1.479-.306 3.18-2.125 3.18-2.074 0-2.346-2.279-2.346-5.084s.271-5.082 2.346-5.082c1.547 0 1.973 1.172 2.023 2.549h1.563c-.067-2.379-1.122-3.773-3.587-3.773-3.349 0-3.91 3.246-3.91 6.307s.459 6.307 3.91 6.307c2.652 0 3.554-2.107 3.689-4.402h-1.563zm-8.086-4.608c0-.629-.119-3.604-3.587-3.604-3.349 0-3.91 3.246-3.91 6.307 0 3.264.544 6.307 3.724 6.307 1.343 0 2.295-.85 2.617-1.887h.034v1.648h1.122v-6.307h-3.757v1.225h2.397c0 1.615-.153 4.098-2.228 4.098s-2.346-2.279-2.346-5.084.271-5.082 2.346-5.082c1.496 0 1.938 1.104 2.023 2.379h1.565zm-10.705 4.608c-.051 1.479-.306 3.18-2.125 3.18-2.073 0-2.346-2.279-2.346-5.084s.272-5.082 2.346-5.082c1.547 0 1.973 1.172 2.023 2.549h1.563c-.067-2.379-1.122-3.773-3.587-3.773-3.349 0-3.91 3.246-3.91 6.307s.459 6.307 3.91 6.307c2.652 0 3.554-2.107 3.689-4.402h-1.563zm-15.905 4.164h1.563l.901-3.332h3.876l.867 3.332h1.563l-3.264-12.137h-2.006l-3.5 12.137zm4.453-10.42h.034l1.547 5.865h-3.264l1.683-5.865zm-6.71 6.256c-.051 1.479-.306 3.18-2.125 3.18-2.073 0-2.346-2.279-2.346-5.084s.272-5.082 2.346-5.082c1.548 0 1.973 1.172 2.023 2.549h1.563c-.067-2.379-1.121-3.773-3.587-3.773-3.349 0-3.909 3.246-3.909 6.307s.459 6.307 3.909 6.307c2.652 0 3.554-2.107 3.689-4.402h-1.563zm-10.466-6.647h3.061v-1.326h-7.6v1.326h3.043v10.811h1.496v-10.811zm-5.91 2.039c0-.629-.118-3.604-3.587-3.604-3.349 0-3.91 3.246-3.91 6.307 0 3.264.545 6.307 3.724 6.307 1.343 0 2.295-.85 2.618-1.887h.033v1.648h1.122v-6.307h-3.757v1.225h2.397c0 1.615-.153 4.098-2.228 4.098-2.073 0-2.346-2.279-2.346-5.084s.272-5.082 2.346-5.082c1.496 0 1.938 1.104 2.023 2.379h1.565zm-10.705 4.608c-.051 1.479-.306 3.18-2.125 3.18-2.073 0-2.346-2.279-2.346-5.084s.272-5.082 2.346-5.082c1.548 0 1.973 1.172 2.023 2.549h1.564c-.068-2.379-1.122-3.773-3.588-3.773-3.349 0-3.909 3.246-3.909 6.307s.459 6.307 3.909 6.307c2.652 0 3.554-2.107 3.689-4.402h-1.563zm-9.241 0c-.052 1.479-.307 3.18-2.125 3.18-2.074 0-2.347-2.279-2.347-5.084s.272-5.082 2.347-5.082c1.547 0 1.972 1.172 2.022 2.549h1.564c-.068-2.379-1.122-3.773-3.587-3.773-3.35 0-3.91 3.246-3.91 6.307s.459 6.307 3.91 6.307c2.651 0 3.553-2.107 3.688-4.402h-1.562zm-15.907 4.164h1.563l.901-3.332h3.876l.867 3.332h1.563l-3.264-12.137h-2.006l-3.5 12.137zm4.454-10.42h.034l1.547 5.865h-3.265l1.684-5.865zm-6.709 6.256c-.051 1.479-.307 3.18-2.125 3.18-2.074 0-2.347-2.279-2.347-5.084s.272-5.082 2.347-5.082c1.547 0 1.972 1.172 2.022 2.549h1.564c-.068-2.379-1.122-3.773-3.587-3.773-3.35 0-3.91 3.246-3.91 6.307s.459 6.307 3.91 6.307c2.651 0 3.553-2.107 3.688-4.402h-1.562zm-8.087-4.608c0-.629-.119-3.604-3.587-3.604-3.35 0-3.91 3.246-3.91 6.307 0 3.264.544 6.307 3.723 6.307 1.343 0 2.295-.85 2.618-1.887h.034v1.648h1.122v-6.307h-3.757v1.225h2.396c0 1.615-.153 4.098-2.227 4.098s-2.347-2.279-2.347-5.084.272-5.082 2.347-5.082c1.495 0 1.938 1.104 2.022 2.379h1.566zm-11.929-2.039h3.061v-1.326h-7.6v1.326h3.043v10.811h1.496v-10.811zm-8.29 0h3.061v-1.326h-7.599v1.326h3.043v10.811h1.495v-10.811zm-7.066 6.647c-.051 1.479-.307 3.18-2.125 3.18-2.074 0-2.346-2.279-2.346-5.084s.271-5.082 2.346-5.082c1.547 0 1.972 1.172 2.022 2.549h1.564c-.068-2.379-1.122-3.773-3.587-3.773-3.35 0-3.91 3.246-3.91 6.307s.459 6.307 3.91 6.307c2.651 0 3.553-2.107 3.688-4.402h-1.562zm-10.466-6.647h3.06v-1.326h-7.599v1.326h3.043v10.811h1.496v-10.811zm-5.911 2.039c0-.629-.119-3.604-3.587-3.604-3.35 0-3.91 3.246-3.91 6.307 0 3.264.544 6.307 3.723 6.307 1.343 0 2.295-.85 2.618-1.887h.034v1.648h1.122v-6.307h-3.757v1.225h2.396c0 1.615-.153 4.098-2.227 4.098s-2.347-2.279-2.347-5.084.272-5.082 2.347-5.082c1.496 0 1.938 1.104 2.022 2.379h1.566zm-10.704 4.608c-.051 1.479-.306 3.18-2.125 3.18-2.074 0-2.346-2.279-2.346-5.084s.271-5.082 2.346-5.082c1.547 0 1.972 1.172 2.022 2.549h1.564c-.068-2.379-1.122-3.773-3.587-3.773-3.349 0-3.91 3.246-3.91 6.307s.459 6.307 3.91 6.307c2.652 0 3.553-2.107 3.688-4.402h-1.562zm-10.467-6.647h3.06v-1.326h-7.599v1.326h3.043v10.811h1.496v-10.811zm-12.795 10.811h1.563l.901-3.332h3.876l.867 3.332h1.563l-3.262-12.137h-2.006l-3.502 12.137zm4.454-10.42h.033l1.547 5.865h-3.264l1.684-5.865zm-13.374 10.42h1.563l.901-3.332h3.876l.867 3.332h1.563l-3.262-12.137h-2.006l-3.502 12.137zm4.453-10.42h.034l1.547 5.865h-3.264l1.683-5.865zm-6.709 6.256c-.051 1.479-.306 3.18-2.125 3.18-2.073 0-2.346-2.279-2.346-5.084s.272-5.082 2.346-5.082c1.548 0 1.973 1.172 2.023 2.549h1.563c-.067-2.379-1.121-3.773-3.587-3.773-3.349 0-3.909 3.246-3.909 6.307s.459 6.307 3.909 6.307c2.652 0 3.554-2.107 3.689-4.402h-1.563zm-8.086-4.608c0-.629-.119-3.604-3.587-3.604-3.349 0-3.91 3.246-3.91 6.307 0 3.264.544 6.307 3.724 6.307 1.343 0 2.295-.85 2.618-1.887h.033v1.648h1.122v-6.307h-3.757v1.225h2.397c0 1.615-.153 4.098-2.228 4.098s-2.346-2.279-2.346-5.084.271-5.082 2.346-5.082c1.496 0 1.938 1.104 2.023 2.379h1.565zm-11.929-2.039h3.06v-1.326h-7.599v1.326h3.043v10.811h1.496v-10.811zm-7.066 6.647c-.051 1.479-.306 3.18-2.125 3.18-2.073 0-2.346-2.279-2.346-5.084s.272-5.082 2.346-5.082c1.548 0 1.973 1.172 2.023 2.549h1.564c-.068-2.379-1.122-3.773-3.588-3.773-3.349 0-3.909 3.246-3.909 6.307s.459 6.307 3.909 6.307c2.652 0 3.554-2.107 3.689-4.402h-1.563zm-15.906 4.164h1.563l.901-3.332h3.876l.867 3.332h1.563l-3.264-12.137h-2.006l-3.5 12.137zm4.454-10.42h.033l1.548 5.865h-3.265l1.684-5.865zm-6.709 6.256c-.052 1.479-.307 3.18-2.125 3.18-2.074 0-2.347-2.279-2.347-5.084s.272-5.082 2.347-5.082c1.547 0 1.972 1.172 2.022 2.549h1.564c-.068-2.379-1.122-3.773-3.587-3.773-3.35 0-3.91 3.246-3.91 6.307s.459 6.307 3.91 6.307c2.651 0 3.553-2.107 3.688-4.402h-1.562zm-8.088-4.608c0-.629-.118-3.604-3.587-3.604-3.349 0-3.909 3.246-3.909 6.307 0 3.264.544 6.307 3.723 6.307 1.343 0 2.295-.85 2.618-1.887h.034v1.648h1.121v-6.307h-3.757v1.225h2.397c0 1.615-.153 4.098-2.228 4.098-2.073 0-2.346-2.279-2.346-5.084s.272-5.082 2.346-5.082c1.496 0 1.938 1.104 2.023 2.379h1.565zm-10.703 4.608c-.052 1.479-.307 3.18-2.125 3.18-2.074 0-2.347-2.279-2.347-5.084s.272-5.082 2.347-5.082c1.547 0 1.972 1.172 2.022 2.549h1.564c-.068-2.379-1.122-3.773-3.587-3.773-3.35 0-3.91 3.246-3.91 6.307s.459 6.307 3.91 6.307c2.651 0 3.553-2.107 3.688-4.402h-1.562z"/><path clip-path="url(#b)" fill="#C6D2DA" d="M755.943 4.64c0-.629-.119-3.604-3.587-3.604-3.35 0-3.91 3.247-3.91 6.308 0 3.264.544 6.307 3.723 6.307 1.343 0 2.295-.85 2.618-1.887h.034v1.648h1.122v-6.307h-3.757v1.224h2.396c0 1.615-.153 4.098-2.227 4.098s-2.347-2.278-2.347-5.083c0-2.806.272-5.083 2.347-5.083 1.496 0 1.938 1.104 2.022 2.38h1.566zm-10.705 4.607c-.051 1.479-.306 3.18-2.125 3.18-2.074 0-2.346-2.278-2.346-5.083 0-2.806.271-5.083 2.346-5.083 1.547 0 1.972 1.173 2.022 2.55h1.564c-.068-2.38-1.122-3.774-3.587-3.774-3.35 0-3.91 3.247-3.91 6.308 0 3.06.459 6.307 3.91 6.307 2.652 0 3.553-2.108 3.688-4.403h-1.562zm-15.906 4.165h1.564l.9-3.332h3.876l.867 3.332h1.564l-3.265-12.138h-2.006l-3.5 12.138zm4.454-10.421h.034l1.547 5.865h-3.264l1.683-5.865zm-6.71 6.256c-.051 1.479-.306 3.18-2.125 3.18-2.074 0-2.346-2.278-2.346-5.083 0-2.806.271-5.083 2.346-5.083 1.547 0 1.972 1.173 2.023 2.55h1.563c-.068-2.38-1.122-3.774-3.587-3.774-3.349 0-3.91 3.247-3.91 6.308 0 3.06.459 6.307 3.91 6.307 2.652 0 3.553-2.108 3.689-4.403h-1.563zm-10.466-6.647h3.06v-1.326h-7.599v1.326h3.043v10.812h1.496v-10.812zm-5.91 2.04c0-.629-.119-3.604-3.587-3.604-3.35 0-3.91 3.247-3.91 6.308 0 3.264.544 6.307 3.723 6.307 1.344 0 2.295-.85 2.618-1.887h.034v1.648h1.122v-6.307h-3.757v1.224h2.396c0 1.615-.152 4.098-2.227 4.098s-2.346-2.278-2.346-5.083c0-2.806.271-5.083 2.346-5.083 1.496 0 1.938 1.104 2.022 2.38h1.566zm-10.705 4.607c-.051 1.479-.306 3.18-2.125 3.18-2.074 0-2.346-2.278-2.346-5.083 0-2.806.271-5.083 2.346-5.083 1.547 0 1.972 1.173 2.023 2.55h1.563c-.068-2.38-1.122-3.774-3.587-3.774-3.349 0-3.91 3.247-3.91 6.308 0 3.06.459 6.307 3.91 6.307 2.652 0 3.553-2.108 3.689-4.403h-1.563zm-9.243 0c-.051 1.479-.306 3.18-2.125 3.18-2.073 0-2.346-2.278-2.346-5.083 0-2.806.272-5.083 2.346-5.083 1.547 0 1.973 1.173 2.023 2.55h1.563c-.067-2.38-1.122-3.774-3.587-3.774-3.349 0-3.91 3.247-3.91 6.308 0 3.06.459 6.307 3.91 6.307 2.652 0 3.554-2.108 3.689-4.403h-1.563zm-15.907 4.165h1.564l.901-3.332h3.876l.867 3.332h1.563l-3.264-12.138h-2.006l-3.501 12.138zm4.454-10.421h.034l1.547 5.865h-3.264l1.683-5.865zm-6.709 6.256c-.051 1.479-.306 3.18-2.125 3.18-2.073 0-2.346-2.278-2.346-5.083 0-2.806.272-5.083 2.346-5.083 1.548 0 1.973 1.173 2.023 2.55h1.563c-.067-2.38-1.121-3.774-3.587-3.774-3.349 0-3.909 3.247-3.909 6.308 0 3.06.459 6.307 3.909 6.307 2.652 0 3.554-2.108 3.689-4.403h-1.563zm-8.086-4.607c0-.629-.119-3.604-3.587-3.604-3.349 0-3.91 3.247-3.91 6.308 0 3.264.544 6.307 3.724 6.307 1.343 0 2.295-.85 2.618-1.887h.033v1.648h1.122v-6.307h-3.757v1.224h2.397c0 1.615-.153 4.098-2.228 4.098s-2.346-2.278-2.346-5.083c0-2.806.271-5.083 2.346-5.083 1.496 0 1.938 1.104 2.023 2.38h1.565zm-11.928-2.04h3.06v-1.326h-7.599v1.326h3.043v10.812h1.496v-10.812zm-8.29 0h3.06v-1.326h-7.599v1.326h3.043v10.812h1.496v-10.812zm-7.068 6.647c-.051 1.479-.306 3.18-2.125 3.18-2.073 0-2.346-2.278-2.346-5.083 0-2.806.272-5.083 2.346-5.083 1.548 0 1.973 1.173 2.023 2.55h1.564c-.068-2.38-1.122-3.774-3.588-3.774-3.349 0-3.909 3.247-3.909 6.308 0 3.06.459 6.307 3.909 6.307 2.652 0 3.554-2.108 3.689-4.403h-1.563zm-10.466-6.647h3.061v-1.326h-7.6v1.326h3.043v10.812h1.496v-10.812zm-5.911 2.04c0-.629-.118-3.604-3.587-3.604-3.349 0-3.91 3.247-3.91 6.308 0 3.264.544 6.307 3.724 6.307 1.343 0 2.295-.85 2.618-1.887h.033v1.648h1.122v-6.307h-3.757v1.224h2.397c0 1.615-.153 4.098-2.228 4.098-2.073 0-2.346-2.278-2.346-5.083 0-2.806.272-5.083 2.346-5.083 1.496 0 1.938 1.104 2.023 2.38h1.565zm-10.703 4.607c-.052 1.479-.307 3.18-2.125 3.18-2.074 0-2.347-2.278-2.347-5.083 0-2.806.272-5.083 2.347-5.083 1.547 0 1.972 1.173 2.022 2.55h1.564c-.068-2.38-1.122-3.774-3.587-3.774-3.35 0-3.91 3.247-3.91 6.308 0 3.06.459 6.307 3.91 6.307 2.651 0 3.553-2.108 3.688-4.403h-1.562zm-10.467-6.647h3.061v-1.326h-7.6v1.326h3.043v10.812h1.496v-10.812zm-12.796 10.812h1.564l.9-3.332h3.876l.867 3.332h1.564l-3.265-12.138h-2.006l-3.5 12.138zm4.455-10.421h.034l1.547 5.865h-3.264l1.683-5.865zm-13.374 10.421h1.564l.9-3.332h3.876l.867 3.332h1.564l-3.265-12.138h-2.006l-3.5 12.138zm4.454-10.421h.034l1.547 5.865h-3.264l1.683-5.865zm-6.709 6.256c-.051 1.479-.306 3.18-2.125 3.18-2.074 0-2.346-2.278-2.346-5.083 0-2.806.271-5.083 2.346-5.083 1.547 0 1.972 1.173 2.023 2.55h1.563c-.068-2.38-1.122-3.774-3.587-3.774-3.349 0-3.91 3.247-3.91 6.308 0 3.06.459 6.307 3.91 6.307 2.652 0 3.553-2.108 3.689-4.403h-1.563zm-8.086-4.607c0-.629-.119-3.604-3.587-3.604-3.349 0-3.91 3.247-3.91 6.308 0 3.264.544 6.307 3.723 6.307 1.344 0 2.295-.85 2.618-1.887h.034v1.648h1.122v-6.307h-3.757v1.224h2.396c0 1.615-.152 4.098-2.227 4.098s-2.346-2.278-2.346-5.083c0-2.806.271-5.083 2.346-5.083 1.496 0 1.938 1.104 2.022 2.38h1.566zm-11.929-2.04h3.06v-1.326h-7.599v1.326h3.043v10.812h1.496v-10.812zm-7.066 6.647c-.051 1.479-.306 3.18-2.125 3.18-2.074 0-2.346-2.278-2.346-5.083 0-2.806.271-5.083 2.346-5.083 1.547 0 1.972 1.173 2.023 2.55h1.563c-.068-2.38-1.122-3.774-3.587-3.774-3.349 0-3.91 3.247-3.91 6.308 0 3.06.459 6.307 3.91 6.307 2.652 0 3.553-2.108 3.689-4.403h-1.563zm-15.908 4.165h1.564l.9-3.332h3.877l.866 3.332h1.564l-3.263-12.138h-2.006l-3.502 12.138zm4.455-10.421h.034l1.547 5.865h-3.264l1.683-5.865zm-6.709 6.256c-.051 1.479-.306 3.18-2.125 3.18-2.074 0-2.346-2.278-2.346-5.083 0-2.806.271-5.083 2.346-5.083 1.547 0 1.972 1.173 2.023 2.55h1.563c-.067-2.38-1.122-3.774-3.587-3.774-3.349 0-3.91 3.247-3.91 6.308 0 3.06.459 6.307 3.91 6.307 2.652 0 3.553-2.108 3.689-4.403h-1.563zm-8.086-4.607c0-.629-.119-3.604-3.587-3.604-3.349 0-3.91 3.247-3.91 6.308 0 3.264.544 6.307 3.723 6.307 1.344 0 2.296-.85 2.618-1.887h.034v1.648h1.122v-6.307h-3.757v1.224h2.396c0 1.615-.152 4.098-2.227 4.098s-2.346-2.278-2.346-5.083c0-2.806.271-5.083 2.346-5.083 1.496 0 1.938 1.104 2.023 2.38h1.565zm-10.705 4.607c-.051 1.479-.306 3.18-2.125 3.18-2.074 0-2.346-2.278-2.346-5.083 0-2.806.271-5.083 2.346-5.083 1.547 0 1.973 1.173 2.023 2.55h1.563c-.067-2.38-1.122-3.774-3.587-3.774-3.349 0-3.91 3.247-3.91 6.308 0 3.06.459 6.307 3.91 6.307 2.652 0 3.553-2.108 3.689-4.403h-1.563zm-8.086-4.607c0-.629-.119-3.604-3.587-3.604-3.349 0-3.91 3.247-3.91 6.308 0 3.264.544 6.307 3.724 6.307 1.343 0 2.295-.85 2.617-1.887h.034v1.648h1.122v-6.307h-3.757v1.224h2.396c0 1.615-.152 4.098-2.227 4.098s-2.346-2.278-2.346-5.083c0-2.806.271-5.083 2.346-5.083 1.496 0 1.938 1.104 2.023 2.38h1.565zm-10.706 4.607c-.051 1.479-.306 3.18-2.125 3.18-2.074 0-2.346-2.278-2.346-5.083 0-2.806.271-5.083 2.346-5.083 1.547 0 1.973 1.173 2.023 2.55h1.563c-.067-2.38-1.122-3.774-3.587-3.774-3.349 0-3.91 3.247-3.91 6.308 0 3.06.459 6.307 3.91 6.307 2.652 0 3.553-2.108 3.689-4.403h-1.563zm-15.906 4.165h1.564l.901-3.332h3.876l.866 3.332h1.564l-3.264-12.138h-2.006l-3.501 12.138zm4.454-10.421h.034l1.547 5.865h-3.264l1.683-5.865zm-6.71 6.256c-.051 1.479-.306 3.18-2.125 3.18-2.073 0-2.346-2.278-2.346-5.083 0-2.806.272-5.083 2.346-5.083 1.547 0 1.973 1.173 2.023 2.55h1.563c-.067-2.38-1.122-3.774-3.587-3.774-3.349 0-3.91 3.247-3.91 6.308 0 3.06.46 6.307 3.91 6.307 2.652 0 3.554-2.108 3.689-4.403h-1.563zm-10.465-6.647h3.061v-1.326h-7.6v1.326h3.043v10.812h1.496v-10.812zm-5.911 2.04c0-.629-.119-3.604-3.587-3.604-3.349 0-3.91 3.247-3.91 6.308 0 3.264.544 6.307 3.724 6.307 1.343 0 2.295-.85 2.618-1.887h.033v1.648h1.122v-6.307h-3.757v1.224h2.397c0 1.615-.153 4.098-2.228 4.098s-2.346-2.278-2.346-5.083c0-2.806.271-5.083 2.346-5.083 1.496 0 1.938 1.104 2.023 2.38h1.565zm-10.705 4.607c-.051 1.479-.306 3.18-2.125 3.18-2.073 0-2.346-2.278-2.346-5.083 0-2.806.272-5.083 2.346-5.083 1.547 0 1.973 1.173 2.023 2.55h1.563c-.067-2.38-1.121-3.774-3.587-3.774-3.349 0-3.909 3.247-3.909 6.308 0 3.06.459 6.307 3.909 6.307 2.652 0 3.554-2.108 3.689-4.403h-1.563zm-9.241 0c-.052 1.479-.307 3.18-2.125 3.18-2.074 0-2.347-2.278-2.347-5.083 0-2.806.272-5.083 2.347-5.083 1.547 0 1.972 1.173 2.022 2.55h1.564c-.068-2.38-1.122-3.774-3.587-3.774-3.35 0-3.91 3.247-3.91 6.308 0 3.06.459 6.307 3.91 6.307 2.651 0 3.553-2.108 3.688-4.403h-1.562zm-15.907 4.165h1.563l.901-3.332h3.876l.867 3.332h1.563l-3.264-12.138h-2.006l-3.5 12.138zm4.454-10.421h.034l1.547 5.865h-3.265l1.684-5.865zm-6.709 6.256c-.052 1.479-.307 3.18-2.125 3.18-2.074 0-2.347-2.278-2.347-5.083 0-2.806.272-5.083 2.347-5.083 1.547 0 1.972 1.173 2.022 2.55h1.564c-.068-2.38-1.122-3.774-3.587-3.774-3.35 0-3.91 3.247-3.91 6.308 0 3.06.459 6.307 3.91 6.307 2.651 0 3.553-2.108 3.688-4.403h-1.562zm-8.086-4.607c0-.629-.119-3.604-3.587-3.604-3.35 0-3.91 3.247-3.91 6.308 0 3.264.544 6.307 3.723 6.307 1.342 0 2.295-.85 2.618-1.887h.034v1.648h1.122v-6.307h-3.758v1.224h2.397c0 1.615-.153 4.098-2.227 4.098s-2.347-2.278-2.347-5.083c0-2.806.272-5.083 2.347-5.083 1.495 0 1.938 1.104 2.021 2.38h1.567zm-11.93-2.04h3.061v-1.326h-7.6v1.326h3.043v10.812h1.496v-10.812zm-8.29 0h3.061v-1.326h-7.6v1.326h3.043v10.812h1.496v-10.812zm-7.066 6.647c-.051 1.479-.307 3.18-2.125 3.18-2.074 0-2.347-2.278-2.347-5.083 0-2.806.272-5.083 2.347-5.083 1.547 0 1.972 1.173 2.022 2.55h1.564c-.068-2.38-1.122-3.774-3.587-3.774-3.35 0-3.91 3.247-3.91 6.308 0 3.06.459 6.307 3.91 6.307 2.651 0 3.553-2.108 3.688-4.403h-1.562zm-10.466-6.647h3.06v-1.326h-7.599v1.326h3.043v10.812h1.496v-10.812zm-5.911 2.04c0-.629-.119-3.604-3.587-3.604-3.35 0-3.91 3.247-3.91 6.308 0 3.264.544 6.307 3.723 6.307 1.343 0 2.295-.85 2.618-1.887h.034v1.648h1.122v-6.307h-3.757v1.224h2.396c0 1.615-.153 4.098-2.227 4.098s-2.347-2.278-2.347-5.083c0-2.806.272-5.083 2.347-5.083 1.496 0 1.938 1.104 2.022 2.38h1.566zm-10.704 4.607c-.051 1.479-.307 3.18-2.125 3.18-2.074 0-2.347-2.278-2.347-5.083 0-2.806.272-5.083 2.347-5.083 1.547 0 1.972 1.173 2.022 2.55h1.564c-.068-2.38-1.122-3.774-3.587-3.774-3.35 0-3.91 3.247-3.91 6.308 0 3.06.459 6.307 3.91 6.307 2.651 0 3.553-2.108 3.688-4.403h-1.562zm-10.466-6.647h3.06v-1.326h-7.599v1.326h3.042v10.812h1.497v-10.812zm-12.796 10.812h1.563l.901-3.332h3.876l.867 3.332h1.563l-3.264-12.138h-2.006l-3.5 12.138zm4.453-10.421h.034l1.547 5.865h-3.264l1.683-5.865zm-13.374 10.421h1.564l.901-3.332h3.876l.866 3.332h1.564l-3.264-12.138h-2.007l-3.5 12.138zm4.454-10.421h.034l1.547 5.865h-3.264l1.683-5.865zm-6.709 6.256c-.051 1.479-.306 3.18-2.125 3.18-2.073 0-2.346-2.278-2.346-5.083 0-2.806.272-5.083 2.346-5.083 1.547 0 1.973 1.173 2.023 2.55h1.563c-.067-2.38-1.122-3.774-3.587-3.774-3.349 0-3.91 3.247-3.91 6.308 0 3.06.46 6.307 3.91 6.307 2.652 0 3.554-2.108 3.689-4.403h-1.563zm-8.086-4.607c0-.629-.119-3.604-3.587-3.604-3.349 0-3.91 3.247-3.91 6.308 0 3.264.544 6.307 3.724 6.307 1.343 0 2.295-.85 2.618-1.887h.033v1.648h1.122v-6.307h-3.757v1.224h2.397c0 1.615-.153 4.098-2.228 4.098s-2.346-2.278-2.346-5.083c0-2.806.271-5.083 2.346-5.083 1.496 0 1.938 1.104 2.023 2.38h1.565zm-11.928-2.04h3.06v-1.326h-7.599v1.326h3.043v10.812h1.496v-10.812zm-7.067 6.647c-.051 1.479-.306 3.18-2.125 3.18-2.074 0-2.346-2.278-2.346-5.083 0-2.806.271-5.083 2.346-5.083 1.547 0 1.972 1.173 2.023 2.55h1.563c-.067-2.38-1.122-3.774-3.587-3.774-3.349 0-3.91 3.247-3.91 6.308 0 3.06.459 6.307 3.91 6.307 2.652 0 3.553-2.108 3.689-4.403h-1.563zm-15.907 4.165h1.564l.901-3.332h3.876l.866 3.332h1.564l-3.264-12.138h-2.007l-3.5 12.138zm4.454-10.421h.034l1.547 5.865h-3.264l1.683-5.865zm-6.709 6.256c-.051 1.479-.306 3.18-2.125 3.18-2.074 0-2.346-2.278-2.346-5.083 0-2.806.271-5.083 2.346-5.083 1.547 0 1.973 1.173 2.023 2.55h1.563c-.067-2.38-1.122-3.774-3.587-3.774-3.349 0-3.91 3.247-3.91 6.308 0 3.06.459 6.307 3.91 6.307 2.652 0 3.554-2.108 3.689-4.403h-1.563zm-8.087-4.607c0-.629-.118-3.604-3.587-3.604-3.349 0-3.909 3.247-3.909 6.308 0 3.264.543 6.307 3.723 6.307 1.343 0 2.296-.85 2.618-1.887h.034v1.648h1.121v-6.307h-3.756v1.224h2.396c0 1.615-.153 4.098-2.228 4.098-2.073 0-2.346-2.278-2.346-5.083 0-2.806.272-5.083 2.346-5.083 1.496 0 1.938 1.104 2.024 2.38h1.564zm-10.704 4.607c-.051 1.479-.306 3.18-2.125 3.18-2.074 0-2.346-2.278-2.346-5.083 0-2.806.271-5.083 2.346-5.083 1.547 0 1.973 1.173 2.023 2.55h1.563c-.067-2.38-1.122-3.774-3.587-3.774-3.349 0-3.91 3.247-3.91 6.308 0 3.06.459 6.307 3.91 6.307 2.652 0 3.554-2.108 3.689-4.403h-1.563zm-8.086-4.607c0-.629-.119-3.604-3.587-3.604-3.349 0-3.91 3.247-3.91 6.308 0 3.264.544 6.307 3.724 6.307 1.343 0 2.295-.85 2.617-1.887h.034v1.648h1.122v-6.307h-3.757v1.224h2.397c0 1.615-.153 4.098-2.228 4.098s-2.346-2.278-2.346-5.083c0-2.806.271-5.083 2.346-5.083 1.496 0 1.938 1.104 2.023 2.38h1.565zm-10.705 4.607c-.051 1.479-.306 3.18-2.125 3.18-2.073 0-2.346-2.278-2.346-5.083 0-2.806.272-5.083 2.346-5.083 1.547 0 1.973 1.173 2.023 2.55h1.563c-.067-2.38-1.122-3.774-3.587-3.774-3.349 0-3.91 3.247-3.91 6.308 0 3.06.459 6.307 3.91 6.307 2.652 0 3.554-2.108 3.689-4.403h-1.563zm-15.905 4.165h1.563l.901-3.332h3.876l.867 3.332h1.563l-3.264-12.138h-2.006l-3.5 12.138zm4.453-10.421h.034l1.547 5.865h-3.264l1.683-5.865zm-6.71 6.256c-.051 1.479-.306 3.18-2.125 3.18-2.073 0-2.346-2.278-2.346-5.083 0-2.806.272-5.083 2.346-5.083 1.548 0 1.973 1.173 2.023 2.55h1.563c-.067-2.38-1.121-3.774-3.587-3.774-3.349 0-3.909 3.247-3.909 6.308 0 3.06.459 6.307 3.909 6.307 2.652 0 3.554-2.108 3.689-4.403h-1.563zm-10.466-6.647h3.061v-1.326h-7.6v1.326h3.043v10.812h1.496v-10.812zm-5.91 2.04c0-.629-.118-3.604-3.587-3.604-3.349 0-3.91 3.247-3.91 6.308 0 3.264.545 6.307 3.724 6.307 1.343 0 2.295-.85 2.618-1.887h.033v1.648h1.122v-6.307h-3.757v1.224h2.397c0 1.615-.153 4.098-2.228 4.098-2.073 0-2.346-2.278-2.346-5.083 0-2.806.272-5.083 2.346-5.083 1.496 0 1.938 1.104 2.023 2.38h1.565zm-10.705 4.607c-.051 1.479-.306 3.18-2.125 3.18-2.073 0-2.346-2.278-2.346-5.083 0-2.806.272-5.083 2.346-5.083 1.548 0 1.973 1.173 2.023 2.55h1.564c-.068-2.38-1.122-3.774-3.588-3.774-3.349 0-3.909 3.247-3.909 6.308 0 3.06.459 6.307 3.909 6.307 2.652 0 3.554-2.108 3.689-4.403h-1.563zm-9.241 0c-.052 1.479-.307 3.18-2.125 3.18-2.074 0-2.347-2.278-2.347-5.083 0-2.806.272-5.083 2.347-5.083 1.547 0 1.972 1.173 2.022 2.55h1.564c-.068-2.38-1.122-3.774-3.587-3.774-3.35 0-3.91 3.247-3.91 6.308 0 3.06.459 6.307 3.91 6.307 2.651 0 3.553-2.108 3.688-4.403h-1.562zm-15.907 4.165h1.563l.901-3.332h3.876l.867 3.332h1.563l-3.264-12.138h-2.006l-3.5 12.138zm4.454-10.421h.034l1.547 5.865h-3.265l1.684-5.865zm-6.709 6.256c-.051 1.479-.307 3.18-2.125 3.18-2.074 0-2.347-2.278-2.347-5.083 0-2.806.272-5.083 2.347-5.083 1.547 0 1.972 1.173 2.022 2.55h1.564c-.068-2.38-1.122-3.774-3.587-3.774-3.35 0-3.91 3.247-3.91 6.308 0 3.06.459 6.307 3.91 6.307 2.651 0 3.553-2.108 3.688-4.403h-1.562zm-8.087-4.607c0-.629-.119-3.604-3.587-3.604-3.35 0-3.91 3.247-3.91 6.308 0 3.264.544 6.307 3.723 6.307 1.343 0 2.295-.85 2.618-1.887h.034v1.648h1.122v-6.307h-3.757v1.224h2.396c0 1.615-.153 4.098-2.227 4.098s-2.347-2.278-2.347-5.083c0-2.806.272-5.083 2.347-5.083 1.495 0 1.938 1.104 2.022 2.38h1.566zm-11.929-2.04h3.061v-1.326h-7.6v1.326h3.043v10.812h1.496v-10.812zm-8.29 0h3.061v-1.326h-7.599v1.326h3.043v10.812h1.495v-10.812zm-7.066 6.647c-.051 1.479-.307 3.18-2.125 3.18-2.074 0-2.346-2.278-2.346-5.083 0-2.806.271-5.083 2.346-5.083 1.547 0 1.972 1.173 2.022 2.55h1.564c-.068-2.38-1.122-3.774-3.587-3.774-3.35 0-3.91 3.247-3.91 6.308 0 3.06.459 6.307 3.91 6.307 2.651 0 3.553-2.108 3.688-4.403h-1.562zm-10.466-6.647h3.06v-1.326h-7.599v1.326h3.043v10.812h1.496v-10.812zm-5.911 2.04c0-.629-.119-3.604-3.587-3.604-3.35 0-3.91 3.247-3.91 6.308 0 3.264.544 6.307 3.723 6.307 1.343 0 2.295-.85 2.618-1.887h.034v1.648h1.122v-6.307h-3.757v1.224h2.396c0 1.615-.153 4.098-2.227 4.098s-2.347-2.278-2.347-5.083c0-2.806.272-5.083 2.347-5.083 1.496 0 1.938 1.104 2.022 2.38h1.566zm-10.704 4.607c-.051 1.479-.306 3.18-2.125 3.18-2.074 0-2.346-2.278-2.346-5.083 0-2.806.271-5.083 2.346-5.083 1.547 0 1.972 1.173 2.022 2.55h1.564c-.068-2.38-1.122-3.774-3.587-3.774-3.349 0-3.91 3.247-3.91 6.308 0 3.06.459 6.307 3.91 6.307 2.652 0 3.553-2.108 3.688-4.403h-1.562zm-10.467-6.647h3.06v-1.326h-7.599v1.326h3.043v10.812h1.496v-10.812zm-12.795 10.812h1.563l.901-3.332h3.876l.867 3.332h1.563l-3.262-12.138h-2.006l-3.502 12.138zm4.454-10.421h.033l1.547 5.865h-3.264l1.684-5.865zm-13.374 10.421h1.563l.901-3.332h3.876l.867 3.332h1.563l-3.262-12.138h-2.006l-3.502 12.138zm4.453-10.421h.034l1.547 5.865h-3.264l1.683-5.865zm-6.709 6.256c-.051 1.479-.306 3.18-2.125 3.18-2.073 0-2.346-2.278-2.346-5.083 0-2.806.272-5.083 2.346-5.083 1.548 0 1.973 1.173 2.023 2.55h1.563c-.067-2.38-1.121-3.774-3.587-3.774-3.349 0-3.909 3.247-3.909 6.308 0 3.06.459 6.307 3.909 6.307 2.652 0 3.554-2.108 3.689-4.403h-1.563zm-8.086-4.607c0-.629-.119-3.604-3.587-3.604-3.349 0-3.91 3.247-3.91 6.308 0 3.264.544 6.307 3.724 6.307 1.343 0 2.295-.85 2.618-1.887h.033v1.648h1.122v-6.307h-3.757v1.224h2.397c0 1.615-.153 4.098-2.228 4.098s-2.346-2.278-2.346-5.083c0-2.806.271-5.083 2.346-5.083 1.496 0 1.938 1.104 2.023 2.38h1.565zm-11.929-2.04h3.06v-1.326h-7.599v1.326h3.043v10.812h1.496v-10.812zm-7.066 6.647c-.051 1.479-.306 3.18-2.125 3.18-2.073 0-2.346-2.278-2.346-5.083 0-2.806.272-5.083 2.346-5.083 1.548 0 1.973 1.173 2.023 2.55h1.564c-.068-2.38-1.122-3.774-3.588-3.774-3.349 0-3.909 3.247-3.909 6.308 0 3.06.459 6.307 3.909 6.307 2.652 0 3.554-2.108 3.689-4.403h-1.563zm-15.906 4.165h1.563l.901-3.332h3.876l.867 3.332h1.563l-3.262-12.138h-2.006l-3.502 12.138zm4.454-10.421h.033l1.548 5.865h-3.265l1.684-5.865zm-6.709 6.256c-.052 1.479-.307 3.18-2.125 3.18-2.074 0-2.347-2.278-2.347-5.083 0-2.806.272-5.083 2.347-5.083 1.547 0 1.972 1.173 2.022 2.55h1.564c-.068-2.38-1.122-3.774-3.587-3.774-3.35 0-3.91 3.247-3.91 6.308 0 3.06.459 6.307 3.91 6.307 2.651 0 3.553-2.108 3.688-4.403h-1.562zm-8.088-4.607c0-.629-.118-3.604-3.587-3.604-3.349 0-3.909 3.247-3.909 6.308 0 3.264.544 6.307 3.723 6.307 1.343 0 2.295-.85 2.618-1.887h.034v1.648h1.121v-6.307h-3.757v1.224h2.397c0 1.615-.153 4.098-2.228 4.098-2.073 0-2.346-2.278-2.346-5.083 0-2.806.272-5.083 2.346-5.083 1.496 0 1.938 1.104 2.023 2.38h1.565zm-10.703 4.607c-.052 1.479-.307 3.18-2.125 3.18-2.074 0-2.347-2.278-2.347-5.083 0-2.806.272-5.083 2.347-5.083 1.547 0 1.972 1.173 2.022 2.55h1.564c-.068-2.381-1.121-3.775-3.586-3.775-3.35 0-3.91 3.247-3.91 6.308 0 3.06.459 6.307 3.91 6.307 2.651 0 3.553-2.108 3.688-4.403h-1.563z"/></svg>