<svg xmlns="http://www.w3.org/2000/svg" width="390" height="105"><g fill="#8BA2B3"><path d="M180.061 31.226v-1.031c.788-.212 1.728-.363 2.638-.424v-17.555c-.91-.061-1.85-.213-2.638-.425v-1.031h7.216v1.031c-.788.212-1.728.364-2.638.425v17.434h6.155c.091-.85.303-1.94.516-2.972h1.213v4.548h-12.462zM207.193 31.226v-1.031c.758-.212 1.667-.363 2.577-.424l-1.455-3.881h-9.369l-1.425 3.881c.879.061 1.819.212 2.577.424v1.031h-6.64v-1.031c.546-.151 1.425-.333 2.001-.394l7.216-19.041h2.122l7.156 19.041c.605.061 1.455.242 2 .394v1.031h-6.76zm-2.637-15.554c-.364-1.001-.637-1.91-.91-2.911h-.03c-.273.94-.546 1.91-.91 2.851l-3.214 8.701h8.277l-3.213-8.641zM222.833 31.317c-1.213 0-3.123-.091-4.669-.091h-2.638v-1.031c.788-.212 1.729-.363 2.638-.424v-17.555c-.909-.061-1.85-.213-2.638-.425v-1.031h2.607c1.304 0 3.002-.061 5.428-.061 4.486 0 6.457 1.88 6.457 4.791 0 2.273-1.576 4.244-3.971 4.911v.03c3.183.455 4.486 2.607 4.486 4.791.001 2.093-1.151 6.095-7.7 6.095zm.395-19.07c-1.061 0-2.184.03-3.123.061v7.549c.606.03 1.273.03 2.031.03 3.851 0 5.883-1.485 5.883-4.063 0-2.062-.941-3.577-4.791-3.577zm-1.092 9.126c-.363 0-1.516 0-2.031.03v8.155c.576.092 1.516.183 2.941.183 3.85 0 5.487-1.91 5.487-4.427 0-3.093-2.85-3.941-6.397-3.941zM243.143 31.468c-6.063 0-8.975-4.123-8.975-10.278 0-6.882 4.306-10.672 9.49-10.672 5.608 0 9.005 3.76 9.005 10.278 0 6.852-4.306 10.672-9.52 10.672zm.272-19.312c-3.82 0-7.154 3.122-7.154 8.641 0 5.306 2.334 9.005 7.125 9.005 3.789 0 7.186-3.093 7.186-8.672-.001-5.7-2.669-8.974-7.157-8.974zM267.15 31.226l-6.609-9.672h-.455v8.217c.849.061 1.759.212 2.517.424v1.031h-7.095v-1.031c.788-.212 1.728-.363 2.638-.424v-17.555c-.91-.061-1.85-.213-2.638-.425v-1.031h2.335c.818 0 2.426-.091 4.851-.091 3.699 0 6.61 1.273 6.61 5.033 0 3.639-2.911 5.609-6.58 5.761.546.667 1.092 1.395 1.576 2.092l4.336 6.155c.758.091 1.638.242 2.607.454v1.062h-4.093zm-4.971-19.01c-.819 0-1.456.03-2.093.091v7.701c.333.03 1.001.061 1.971.061 3.335 0 5.245-1.668 5.245-4.032 0-2.851-1.85-3.821-5.123-3.821zM286.157 31.226v-1.031c.758-.212 1.667-.363 2.576-.424l-1.455-3.881h-9.369l-1.424 3.881c.879.061 1.818.212 2.576.424v1.031h-6.64v-1.031c.546-.151 1.425-.333 2.001-.394l7.217-19.041h2.122l7.155 19.041c.606.061 1.455.242 2.001.394v1.031h-6.76zm-2.638-15.554c-.363-1.001-.637-1.91-.909-2.911h-.03c-.273.94-.546 1.91-.91 2.851l-3.213 8.701h8.277l-3.215-8.641zM307.71 15.369h-1.213c-.213-1.304-.425-2.273-.485-3.031h-4.973v17.434c.91.061 1.85.212 2.638.424v1.031h-7.216v-1.031c.788-.212 1.729-.363 2.638-.424v-17.435h-4.941c-.062.758-.243 1.728-.485 3.031h-1.213v-4.608h15.251v4.609zM319.166 31.468c-6.063 0-8.975-4.123-8.975-10.278 0-6.882 4.306-10.672 9.49-10.672 5.609 0 9.005 3.76 9.005 10.278.001 6.852-4.305 10.672-9.52 10.672zm.273-19.312c-3.82 0-7.156 3.122-7.156 8.641 0 5.306 2.335 9.005 7.126 9.005 3.789 0 7.186-3.093 7.186-8.672 0-5.7-2.669-8.974-7.156-8.974zm-.303-3.184l-.939-1.062 3.607-3.365 1.183 1.334-3.851 3.093zM343.144 31.226l-6.61-9.672h-.454v8.217c.849.061 1.758.212 2.516.424v1.031h-7.094v-1.031c.788-.212 1.728-.363 2.638-.424v-17.555c-.91-.061-1.85-.213-2.638-.425v-1.031h2.334c.818 0 2.426-.091 4.852-.091 3.698 0 6.609 1.273 6.609 5.033 0 3.639-2.911 5.609-6.579 5.761.546.667 1.091 1.395 1.576 2.092l4.336 6.155c.758.091 1.637.242 2.607.454v1.062h-4.093zm-4.973-19.01c-.818 0-1.455.03-2.092.091v7.701c.333.03 1 .061 1.971.061 3.335 0 5.245-1.668 5.245-4.032 0-2.851-1.85-3.821-5.124-3.821zM349.233 31.226v-1.031c.789-.212 1.729-.363 2.639-.424v-17.555c-.91-.061-1.85-.213-2.639-.425v-1.031h7.217v1.031c-.789.212-1.729.364-2.638.425v17.555c.909.061 1.849.212 2.638.424v1.031h-7.217zM368.241 31.468c-6.063 0-8.975-4.123-8.975-10.278 0-6.882 4.306-10.672 9.49-10.672 5.609 0 9.005 3.76 9.005 10.278.001 6.852-4.305 10.672-9.52 10.672zm.274-19.312c-3.82 0-7.156 3.122-7.156 8.641 0 5.306 2.335 9.005 7.125 9.005 3.79 0 7.187-3.093 7.187-8.672-.001-5.7-2.67-8.974-7.156-8.974z"/></g><g fill="#8BA2B3"><path d="M187.847 65.767c-2.092 0-3.708-.094-4.976-.094h-2.757v-1.078c.824-.223 1.807-.381 2.757-.443v-18.351c-.951-.063-1.933-.222-2.757-.443v-1.078h2.726c1.648 0 3.898-.095 6.021-.095 7.036 0 11.061 3.391 11.061 10.617 0 7.354-5.039 10.965-12.075 10.965zm.761-19.934c-1.268 0-2.789.063-3.708.096v17.938c.951.127 2.313.221 3.264.221 5.705 0 9.635-2.82 9.635-9.159 0-6.086-3.201-9.096-9.191-9.096zM203.026 65.673v-1.078c.824-.223 1.807-.381 2.758-.443v-18.351c-.951-.063-1.934-.222-2.758-.443v-1.078h13.279v4.596h-1.299c-.191-1.109-.412-2.187-.477-2.979h-6.719v7.955h5.324c.127-.888.285-1.743.508-2.472h1.141v6.497h-1.141c-.254-.729-.412-1.648-.508-2.44h-5.324v8.589h6.751c.095-.855.317-1.996.507-3.043h1.3v4.691h-13.342z"/></g><g fill="#B43125"><path d="M232.087 58.511c.444 1.268 1.047 2.947 1.49 4.563h.031c.412-1.553.951-3.105 1.521-4.754l4.469-12.265c-.888-.063-1.807-.223-2.6-.412v-1.363h7.131v1.363c-.538.158-1.395.316-1.996.38l-7.289 19.65h-2.693l-7.068-19.65c-.602-.063-1.457-.222-1.996-.38v-1.363h7.353v1.363c-.792.189-1.743.349-2.631.412l4.278 12.456zM245.27 65.673v-1.363c.824-.189 1.807-.348 2.757-.412v-17.843c-.95-.063-1.933-.223-2.757-.412v-1.363h7.923v1.363c-.824.189-1.807.349-2.757.412v17.843c.95.064 1.933.223 2.757.412v1.363h-7.923zM267.929 65.673l-6.592-9.889h-.507v8.113c.855.064 1.774.189 2.535.412v1.363h-7.701v-1.362c.824-.189 1.807-.348 2.757-.412v-17.843c-.95-.063-1.933-.223-2.757-.412v-1.363h2.44c.855 0 2.789-.095 5.355-.095 4.025 0 7.068 1.395 7.068 5.388 0 3.645-2.853 5.736-6.561 5.989.539.635 1.077 1.395 1.553 2.092l4.278 6.182c.761.094 1.68.252 2.631.443v1.395h-4.499zm-5.007-19.555c-.792 0-1.458.032-2.092.096v7.701c.349.031 1.015.063 1.965.063 3.296 0 5.198-1.68 5.198-4.057 0-2.789-1.806-3.803-5.071-3.803zM283.552 65.958c-6.401 0-9.476-4.279-9.476-10.745 0-7.193 4.532-11.219 10.046-11.219 5.801 0 9.445 3.866 9.445 10.744 0 7.164-4.532 11.22-10.015 11.22zm.254-19.872c-3.771 0-7.131 3.074-7.131 8.684 0 5.356 2.313 9.065 7.131 9.065 3.74 0 7.162-3.043 7.162-8.717 0-5.736-2.63-9.032-7.162-9.032zM295.942 65.673v-1.363c.823-.189 1.806-.348 2.757-.412v-17.843c-.951-.063-1.934-.223-2.757-.412v-1.363h7.923v1.363c-.824.189-1.807.349-2.758.412v17.62h6.022c.095-.822.285-1.932.507-2.979h1.584v4.977h-13.278zM320.534 65.958c-6.402 0-9.477-4.279-9.477-10.745 0-7.193 4.532-11.219 10.047-11.219 5.8 0 9.444 3.866 9.444 10.744.001 7.164-4.531 11.22-10.014 11.22zm.254-19.872c-3.771 0-7.131 3.074-7.131 8.684 0 5.356 2.313 9.065 7.131 9.065 3.739 0 7.162-3.043 7.162-8.717 0-5.736-2.631-9.032-7.162-9.032zM350.956 56.671v8.082c-2.154.793-4.722 1.205-6.972 1.205-6.37 0-10.554-3.93-10.554-10.586 0-6.529 4.278-11.378 11.346-11.378 1.965 0 3.835.285 5.705.792v4.723h-1.648c-.222-1.078-.349-2.028-.412-2.916-1.331-.349-2.662-.538-3.898-.538-4.5 0-8.524 2.915-8.524 9 0 5.642 3.359 8.812 8.366 8.812 1.553 0 2.884-.223 4.152-.635v-6.527c-.951-.064-1.934-.223-2.726-.445v-1.362h7.353v1.362c-.666.191-1.427.318-2.188.411zM355.044 65.673v-1.363c.823-.189 1.806-.348 2.757-.412v-17.843c-.951-.063-1.934-.223-2.757-.412v-1.363h7.923v1.363c-.824.189-1.807.349-2.758.412v17.843c.951.064 1.934.223 2.758.412v1.363h-7.923zM378.21 65.673v-1.363c.793-.189 1.743-.348 2.631-.412l-1.395-3.771h-9.444l-1.362 3.771c.887.064 1.806.223 2.599.412v1.363h-7.131v-1.363c.538-.158 1.395-.316 2.028-.381l7.32-19.649h2.758l7.32 19.649c.603.064 1.458.223 2.028.381v1.363h-7.352zm-2.503-15.815c-.412-1.078-.697-2.028-.982-3.138h-.032c-.254 1.046-.57 2.06-.951 3.105l-3.073 8.367h8.113l-3.075-8.334z"/></g><g fill="#B43125"><path d="M210.537 75.009v1.6c-.968.223-2.12.408-3.237.482l3.125 20.982c.707.074 1.749.26 2.381.445v1.6h-8.444v-1.6c.894-.223 2.009-.408 3.051-.482l-1.972-13.654c-.446-3.012-.67-4.799-.781-6.063h-.074c-.261 1.078-.633 2.529-1.228 4.24l-5.915 17.559h-3.2l-5.617-16.441c-.595-1.824-1.302-3.795-1.563-5.357h-.037c-.149 1.896-.409 3.869-.669 6.287l-1.637 13.43c1.042.074 2.158.26 3.051.482v1.6h-8.37v-1.6c.632-.186 1.637-.371 2.381-.445l3.05-20.982c-1.116-.074-2.269-.26-3.236-.482v-1.6h7.18l5.729 16.963c.632 1.822 1.153 3.496 1.414 4.873h.074c.372-1.711.744-2.826 1.339-4.613l5.915-17.223h7.29zM225.046 100.455c-7.515 0-11.123-5.023-11.123-12.611 0-8.445 5.319-13.17 11.793-13.17 6.807 0 11.086 4.539 11.086 12.611 0 8.408-5.321 13.17-11.756 13.17zm.297-23.327c-4.426 0-8.369 3.609-8.369 10.193 0 6.287 2.715 10.641 8.369 10.641 4.391 0 8.408-3.572 8.408-10.23 0-6.734-3.088-10.604-8.408-10.604zM238.587 100.119v-1.6c.967-.223 2.12-.408 3.236-.482v-20.946c-1.116-.074-2.27-.26-3.236-.482v-1.6h9.3v1.6c-.967.223-2.12.408-3.236.482v20.684h7.068c.111-.967.335-2.27.595-3.496h1.86v5.84h-15.587zM256.369 100.119v-1.6c.967-.223 2.12-.408 3.236-.482v-20.946c-1.116-.074-2.27-.26-3.236-.482v-1.6h15.885v5.58h-1.897c-.223-1.229-.483-2.455-.559-3.35h-7.365v8.855h5.841c.148-.969.335-1.898.595-2.717h1.674v7.59h-1.674c-.26-.818-.483-1.824-.595-2.717h-5.841v9.561h7.403c.111-.967.335-2.193.595-3.422h1.897v5.729h-15.959zM292.082 81.22c-.224-1.301-.372-2.418-.483-3.496-1.451-.371-2.791-.484-4.167-.484-5.952 0-8.444 4.688-8.444 10.455 0 6.436 2.79 10.191 9.077 10.191 2.046 0 4.427-.557 6.063-1.375l.224 2.604c-2.009.781-4.427 1.34-7.031 1.34-7.552 0-11.458-4.502-11.458-12.314 0-7.625 3.646-13.355 12.239-13.355 1.972 0 4.018.262 5.915.744v5.691h-1.935zM318.83 77.091v13.504c0 6.473-3.349 9.859-9.858 9.859-7.813 0-9.301-4.354-9.301-8.668v-14.695c-.893-.074-1.822-.26-2.641-.482v-1.6h8.556v1.6c-.93.26-2.009.408-3.05.482v14.434c0 3.609 1.228 6.586 6.621 6.586 4.65 0 6.883-1.936 6.883-7.291v-13.729c-1.042-.074-2.158-.223-3.088-.482v-1.6h8.519v1.6c-.819.223-1.711.408-2.641.482zM323.964 100.119v-1.6c.967-.223 2.12-.408 3.236-.482v-20.946c-1.116-.074-2.27-.26-3.236-.482v-1.6h9.3v1.6c-.967.223-2.12.408-3.236.482v20.684h7.068c.111-.967.335-2.27.595-3.496h1.86v5.84h-15.587zM357.854 100.119v-1.6c.931-.223 2.046-.408 3.088-.482l-1.637-4.428h-11.086l-1.6 4.428c1.042.074 2.12.26 3.051.482v1.6h-8.37v-1.6c.632-.186 1.637-.371 2.381-.445l8.593-23.064h3.236l8.594 23.064c.707.074 1.711.26 2.381.445v1.6h-8.631zm-2.939-18.563c-.483-1.266-.818-2.381-1.153-3.684h-.037c-.298 1.229-.67 2.418-1.116 3.646l-3.609 9.821h9.523l-3.608-9.783zM382.965 100.119l-7.737-11.605h-.596v9.523c1.005.074 2.083.223 2.977.482v1.6h-9.04v-1.6c.967-.223 2.12-.408 3.236-.482v-20.946c-1.116-.074-2.27-.26-3.236-.482v-1.6h2.864c1.005 0 3.273-.113 6.287-.113 4.725 0 8.296 1.639 8.296 6.324 0 4.279-3.349 6.734-7.701 7.031.633.744 1.266 1.637 1.823 2.455l5.022 7.256c.893.111 1.972.297 3.087.52v1.637h-5.282zm-5.878-22.953c-.93 0-1.711.037-2.455.111v9.041c.409.037 1.19.074 2.307.074 3.869 0 6.101-1.973 6.101-4.762-.001-3.273-2.121-4.464-5.953-4.464z"/></g><g fill="#B43125"><path d="M4.418 64.914v-6.504c2.087-.402 4.577-.803 6.985-.963v-39.264c-2.409-.161-4.898-.563-6.985-.964v-6.504h24.409v6.504c-2.087.401-4.577.803-6.985.964v38.139h10.357c.161-1.928.562-4.256.964-6.665h7.708v15.257h-36.453zM87.118 18.022l-16.38 46.892h-12.124l-16.219-46.892c-1.365-.08-2.971-.401-4.175-.723v-6.584h21.277v6.504c-1.766.321-3.934.723-5.781.883l8.029 24.329c1.043 3.051 2.248 6.664 3.211 10.599h.081c.883-3.693 1.686-6.745 3.292-11.241l8.109-23.687c-1.847-.16-3.935-.562-5.621-.883v-6.504h20.475v6.584c-1.204.322-2.81.643-4.174.723zM143.482 64.914v-6.504c1.606-.322 3.774-.723 5.621-.883l-3.131-20.314c-.803-4.898-1.365-8.592-1.606-11.321h-.161c-.803 3.693-1.606 7.547-2.971 11.803l-8.671 27.22h-10.438l-8.19-25.132c-1.525-4.417-2.81-9.314-3.533-13.891h-.161c-.321 4.095-.963 7.948-1.445 11.723l-2.649 19.913c1.847.16 4.015.561 5.62.883v6.504h-20.314v-6.585c1.204-.322 2.81-.643 4.175-.723l6.504-39.424c-2.409-.161-4.898-.563-6.985-.964v-6.504h20.555l9.073 27.861c1.285 3.854 2.248 7.548 2.971 11.401h.161c.803-4.175 1.686-7.226 2.971-11.24l9.314-28.022h20.394v6.504c-2.087.401-4.577.803-6.985.964l6.584 39.424c1.365.08 2.971.4 4.175.723v6.584h-20.878z"/></g></svg>